:SAMPLES-PER-SECOND 24
:FULLY-SPECIFIED
:DEGREES
535
root  10.9278 38.9327 22.2465 6.73706 -42.7598 -2.29138
RightUpLeg  -15.8131 8.99912 -9.40951
RightLeg  26.2163 -4.75917 -2.78715
RightFoot  -10.5106 -0.126396 7.79083
RightToes  -2.08645e-008 3.77894e-005 6.81332e-007
Spine  -3.41626 -1.5125 -6.9373
Spine1  12.1374 -3.64825 7.74088
HEad  -31.5787 26.8836 -9.01228
LeftShoulder1  7.1355 -12.8222 -37.6144
LeftArm  5.13766 19.3631 -28.7731
LeftForeArm  148.48 -77.1206 -133.667
LeftHand  -0.563475 -2.24719 8.77158
RightShoulder  4.16445 6.72583 34.8121
RightArm  8.69583 -24.8178 36.612
RightForeArm  151.061 76.3548 136.856
RightHand  0.167536 10.7336 0.779096
LeftUpLeg  -2.08835 -2.08088 14.1399
LeftLeg  23.0287 10.5905 5.23345
LeftFoot  -6.4522 1.00466 -23.2903
LeftToes  1.24767e-006 1.47042e-008 1.32732e-009
536
root  9.99067 40.3099 22.2387 7.38647 -41.7364 -2.25159
RightUpLeg  -12.2186 4.05171 -8.61475
RightLeg  18.9409 0.592092 -0.0670327
RightFoot  -3.49842 -0.692071 9.53101
RightToes  -2.08645e-008 3.77894e-005 6.81332e-007
Spine  -4.01266 -2.42632 -7.43462
Spine1  10.502 -4.62029 8.86259
HEad  -28.6756 28.4315 -8.86439
LeftShoulder1  6.84396 -12.529 -36.6313
LeftArm  3.09182 20.0715 -34.4797
LeftForeArm  154.995 -74.6429 -142.515
LeftHand  -0.533125 -1.73415 8.86296
RightShoulder  4.02975 6.61844 33.9241
RightArm  11.3978 -28.4333 34.8596
RightForeArm  157.925 73.0794 146.491
RightHand  0.37046 11.346 2.12956
LeftUpLeg  -4.09425 1.66332 15.4384
LeftLeg  22.1988 9.25393 4.46458
LeftFoot  7.72544 2.95361 -17.9928
LeftToes  1.24767e-006 1.47042e-008 1.32732e-009
537
root  9.20386 41.303 22.246 7.82178 -42.9539 -1.63971
RightUpLeg  -11.1082 -0.00810759 -9.11391
RightLeg  14.9556 8.89785 2.07233
RightFoot  1.56994 -1.64937 14.5144
RightToes  -2.08645e-008 3.77894e-005 6.81332e-007
Spine  -4.53889 -2.0609 -6.12723
Spine1  9.01499 -3.71762 7.3097
HEad  -27.5953 28.5428 -9.87387
LeftShoulder1  6.83559 -12.5292 -36.5794
LeftArm  2.68594 18.7991 -37.3799
LeftForeArm  161.132 -71.4084 -150.048
LeftHand  -0.448985 -1.81859 7.41533
RightShoulder  4.01839 6.65674 33.6629
RightArm  13.0507 -30.4443 31.168
RightForeArm  161.313 70.169 151.961
RightHand  0.462009 11.0833 2.81877
LeftUpLeg  -5.12874 5.94425 15.1218
LeftLeg  19.5795 8.81763 3.78964
LeftFoot  14.0481 3.24503 -14.674
LeftToes  1.24767e-006 1.47042e-008 1.32732e-009
538
root  8.48971 41.737 22.1475 7.526 -45.0566 -0.855713
RightUpLeg  -11.4354 2.0129 -9.77054
RightLeg  14.6917 8.10277 1.69617
RightFoot  3.5552 -2.02423 15.5831
RightToes  -2.08645e-008 3.77894e-005 6.81332e-007
Spine  -3.6289 -1.307 -4.96212
Spine1  7.61329 -2.49316 5.41583
HEad  -28.9449 28.504 -11.9832
LeftShoulder1  6.73848 -12.4237 -36.261
LeftArm  2.93048 15.8312 -38.5385
LeftForeArm  167.101 -67.7291 -155.86
LeftHand  -0.3822 -1.9977 6.19715
RightShoulder  3.98056 6.67931 33.205
RightArm  14.6277 -29.9032 28.5712
RightForeArm  161.232 68.7013 153.955
RightHand  0.345798 10.0353 2.18256
LeftUpLeg  -4.79237 7.27613 14.3495
LeftLeg  15.3412 8.13285 3.09796
LeftFoot  10.38 3.04468 -16.1133
LeftToes  1.24767e-006 1.47042e-008 1.32732e-009
539
root  7.73456 41.5466 21.991 7.19434 -45.7331 0.274841
RightUpLeg  -12.3093 5.41943 -10.3525
RightLeg  16.7042 0.334069 -0.226912
RightFoot  2.43589 -1.3572 11.2821
RightToes  -2.08645e-008 3.77894e-005 6.81332e-007
Spine  -3.45168 -1.36787 -5.78435
Spine1  7.34172 -2.54191 5.67238
HEad  -30.8545 28.7378 -13.839
LeftShoulder1  6.25977 -11.9034 -34.6144
LeftArm  3.82591 11.488 -39.2241
LeftForeArm  170.851 -64.7512 -159.29
LeftHand  -0.371595 -1.72409 6.2393
RightShoulder  3.84793 6.57987 32.2742
RightArm  15.1857 -27.4862 28.1484
RightForeArm  160.376 69.2859 153.077
RightHand  0.109414 9.1197 0.480605
LeftUpLeg  -5.52073 5.57695 13.4009
LeftLeg  10.9177 3.73297 2.32603
LeftFoot  6.54632 2.6968 -17.2609
LeftToes  1.24767e-006 1.47042e-008 1.32732e-009
540
root  7.00264 40.6677 21.8522 7.34741 -45.6903 0.699707
RightUpLeg  -13.3815 5.03855 -10.0899
RightLeg  20.7853 -2.42945 -1.20111
RightFoot  -3.42099 -0.59861 8.39053
RightToes  -2.08645e-008 3.77894e-005 6.81332e-007
Spine  -3.35584 -1.63512 -5.71837
Spine1  6.9124 -2.81381 5.85198
HEad  -32.217 28.6437 -15.0058
LeftShoulder1  5.79382 -11.4003 -32.8795
LeftArm  4.28043 5.70699 -38.2547
LeftForeArm  171.178 -63.6925 -160.221
LeftHand  -0.338667 -1.83523 5.62934
RightShoulder  3.78227 6.51706 31.8562
RightArm  14.3686 -24.1827 28.2338
RightForeArm  158.019 71.2629 149.819
RightHand  -0.00884638 9.38924 -0.457687
LeftUpLeg  -7.6692 0.925121 13.4034
LeftLeg  11.4036 0.182356 2.29066
LeftFoot  4.59325 2.42092 -17.328
LeftToes  1.24767e-006 1.47042e-008 1.32732e-009
541
root  6.43575 39.3682 21.7394 7.72607 -47.4164 -0.86377
RightUpLeg  -14.2853 4.39748 -8.33023
RightLeg  26.2278 -0.323329 -0.375402
RightFoot  -12.5905 -0.011846 6.87492
RightToes  -2.08645e-008 3.77894e-005 6.81332e-007
Spine  -1.64987 -1.05064 -2.40813
Spine1  6.40121 -1.96338 4.14073
HEad  -34.1339 28.587 -16.8529
LeftShoulder1  5.64451 -11.2009 -32.3915
LeftArm  3.04519 -1.22168 -35.5144
LeftForeArm  172.125 -63.9696 -160.083
LeftHand  -0.343275 -2.3359 5.36384
RightShoulder  3.77637 6.48841 31.9058
RightArm  13.4989 -18.9722 28.5758
RightForeArm  151.667 73.9158 143.653
RightHand  -0.0778949 9.69471 -1.00314
LeftUpLeg  -8.46092 -4.9794 15.7337
LeftLeg  17.4846 4.15237 2.17003
LeftFoot  -2.32695 1.54891 -19.3574
LeftToes  1.24767e-006 1.47042e-008 1.32732e-009
542
root  5.94178 38.3545 21.7196 7.97046 -50.4309 -2.98871
RightUpLeg  -14.5739 6.5112 -6.08889
RightLeg  30.5522 -0.488871 -0.549832
RightFoot  -19.1466 0.16428 4.3086
RightToes  -2.08645e-008 3.77894e-005 6.81332e-007
Spine  -0.811927 -0.218408 0.899844
Spine1  8.21785 -0.859244 2.5559
HEad  -36.9948 29.2181 -19.2643
LeftShoulder1  5.71665 -11.2016 -32.8796
LeftArm  0.71167 -6.03063 -32.9292
LeftForeArm  176.851 -64.655 -159.986
LeftHand  -0.407395 -2.3249 6.3376
RightShoulder  3.75502 6.42105 31.9477
RightArm  11.6297 -13.3311 30.5363
RightForeArm  144.018 76.5505 134.715
RightHand  -0.318163 9.33497 -2.89836
LeftUpLeg  -7.68634 -3.61042 17.5339
LeftLeg  23.8933 5.55327 3.02163
LeftFoot  -10.177 0.296411 -22.9453
LeftToes  1.24767e-006 1.47042e-008 1.32732e-009
543
root  5.39588 38.2052 21.9232 6.98364 -51.3972 -3.07428
RightUpLeg  -12.8114 8.71215 -5.22946
RightLeg  31.1802 -2.50712 -1.86778
RightFoot  -20.4904 0.151797 3.61561
RightToes  -2.08645e-008 3.77894e-005 6.81332e-007
Spine  -1.96405 -0.348121 1.19439
Spine1  10.8795 -1.07534 2.48069
HEad  -38.8526 30.2402 -20.5601
LeftShoulder1  6.00363 -11.5044 -33.9975
LeftArm  -0.637274 -4.17776 -32.2876
LeftForeArm  -179.731 -65.2263 -159.84
LeftHand  -0.36531 -2.4934 5.59738
RightShoulder  3.81786 6.45092 32.4673
RightArm  8.2076 -12.6375 33.2707
RightForeArm  142.921 77.248 131.874
RightHand  -0.228191 9.34516 -2.1899
LeftUpLeg  -8.756 -3.18793 17.7192
LeftLeg  30.0837 5.80841 3.97807
LeftFoot  -8.83342 0.557274 -23.3692
LeftToes  1.24767e-006 1.47042e-008 1.32732e-009
544
root  4.95057 38.8779 22.493 5.57532 -49.5663 -2.18506
RightUpLeg  -9.16727 8.02833 -5.71144
RightLeg  28.1114 -2.59784 -1.74126
RightFoot  -17.3777 0.163418 5.29927
RightToes  -2.08645e-008 3.77894e-005 6.81332e-007
Spine  -3.33963 -1.3041 1.02462
Spine1  11.6069 -2.26448 3.24737
HEad  -37.6537 31.2314 -20.6016
LeftShoulder1  6.42776 -11.9874 -35.465
LeftArm  0.684353 3.86058 -34.1934
LeftForeArm  178.383 -65.8525 -159.076
LeftHand  -0.231749 -3.26993 3.35552
RightShoulder  3.9332 6.53386 33.3005
RightArm  5.91932 -17.8917 34.7246
RightForeArm  148.24 75.3676 139.265
RightHand  -0.197874 9.32851 -1.95318
LeftUpLeg  -11.8268 -4.91694 16.7066
LeftLeg  35.5281 5.66516 4.68171
LeftFoot  0.54889 1.93907 -18.8332
LeftToes  1.24767e-006 1.47042e-008 1.32732e-009
545
root  4.6853 40.0239 23.3276 5.23621 -48.5949 -2.02588
RightUpLeg  -6.51872 5.88574 -6.87171
RightLeg  24.218 0.225823 -0.12695
RightFoot  -9.93894 -0.172164 8.21462
RightToes  -2.08645e-008 3.77894e-005 6.81332e-007
Spine  -4.90806 -1.26732 2.21788
Spine1  11.3028 -2.32606 3.81656
HEad  -34.1253 32.0037 -19.95
LeftShoulder1  6.66225 -12.2354 -36.2838
LeftArm  3.52317 13.5082 -37.8605
LeftForeArm  175.058 -67.5545 -156.986
LeftHand  -0.143821 -4.10102 2.03588
RightShoulder  3.96141 6.51235 33.6653
RightArm  5.90926 -24.6282 34.0415
RightForeArm  152.255 72.9225 145.889
RightHand  -0.28348 9.24384 -2.63913
LeftUpLeg  -13.0853 -4.11338 15.4901
LeftLeg  35.3112 3.92145 3.3135
LeftFoot  7.30301 2.55086 -15.7175
LeftToes  1.24767e-006 1.47042e-008 1.32732e-009
546
root  4.47906 41.1309 24.13 4.81885 -50.2794 -1.51349
RightUpLeg  -6.40363 4.96918 -8.63268
RightLeg  23.1294 3.33394 1.3405
RightFoot  -1.3333 -1.00188 11.3037
RightToes  -2.08645e-008 3.77894e-005 6.81332e-007
Spine  -6.18093 0.124493 2.7788
Spine1  10.9692 -0.844359 3.75607
HEad  -31.5376 32.3663 -18.3995
LeftShoulder1  6.54466 -12.1269 -35.8357
LeftArm  4.75044 22.1394 -40.8732
LeftForeArm  172.949 -69.5362 -154.388
LeftHand  0.0743037 -4.69487 -0.561809
RightShoulder  4.00534 6.5531 33.9401
RightArm  6.85265 -29.4782 31.7532
RightForeArm  156.024 71.2272 149.585
RightHand  -0.245897 9.01617 -2.36876
LeftUpLeg  -11.1368 -0.138667 14.1983
LeftLeg  28.2198 -0.0327873 0.320456
LeftFoot  8.50335 3.22967 -18.6201
LeftToes  1.24767e-006 1.47042e-008 1.32732e-009
547
root  4.26754 41.6876 24.7671 3.09827 -52.3085 0.0224609
RightUpLeg  -6.68916 5.51869 -10.2214
RightLeg  23.5899 2.55032 1.0008
RightFoot  2.43841 -1.30989 10.9554
RightToes  -2.08645e-008 3.77894e-005 6.81332e-007
Spine  -6.01667 1.17485 1.96183
Spine1  10.3825 0.538949 2.77098
HEad  -31.6806 32.5189 -16.7931
LeftShoulder1  6.0791 -11.6603 -34.0796
LeftArm  3.83698 28.9729 -41.2888
LeftForeArm  170.729 -70.2755 -153.104
LeftHand  0.397811 -5.0627 -4.10763
RightShoulder  4.06614 6.68176 34.0331
RightArm  8.76328 -31.3535 30.0234
RightForeArm  157.052 70.8515 150.341
RightHand  -0.00269087 8.97996 -0.418246
LeftUpLeg  -8.30397 2.50803 13.0462
LeftLeg  18.7862 -1.86012 -0.381088
LeftFoot  7.75435 3.71953 -22.139
LeftToes  1.24767e-006 1.47042e-008 1.32732e-009
548
root  4.03153 41.6085 25.2941 1.3324 -53.0174 1.68134
RightUpLeg  -6.22092 6.87674 -11.0349
RightLeg  22.2027 -1.96588 -1.07878
RightFoot  1.14237 -0.810389 7.36489
RightToes  -2.08645e-008 3.77894e-005 6.81332e-007
Spine  -5.68081 1.19477 0.488664
Spine1  10.0269 0.915489 1.24367
HEad  -32.9963 32.6375 -16.2875
LeftShoulder1  5.40279 -10.9083 -31.4837
LeftArm  3.37369 33.6296 -39.2723
LeftForeArm  168.544 -70.2151 -152.896
LeftHand  0.40384 -4.93766 -4.23646
RightShoulder  3.91971 6.60198 32.8996
RightArm  11.5243 -30.7452 30.5485
RightForeArm  155.916 71.6016 148.94
RightHand  0.0184414 9.16343 -0.251125
LeftUpLeg  -7.41556 3.09975 12.0179
LeftLeg  11.2245 -0.247789 1.13013
LeftFoot  8.31691 3.27202 -19.08
LeftToes  1.24767e-006 1.47042e-008 1.32732e-009
